<svg xmlns="http://www.w3.org/2000/svg" xmlns:xlink="http://www.w3.org/1999/xlink" preserveAspectRatio="xMidYMid" width="33.062" height="34" viewBox="0 0 33.062 34">
  <defs>
    <style>
      .cls-1 {
        fill: #fff;
        fill-rule: evenodd;
      }
    </style>
  </defs>
  <path d="M32.802,1.752 C31.657,3.267 30.804,4.680 30.000,6.000 C28.250,8.874 27.161,12.019 26.000,12.000 C26.072,12.001 25.169,12.047 23.000,9.000 C22.169,7.833 20.599,6.909 21.296,6.308 C21.732,5.931 22.299,5.873 22.685,6.302 C22.332,5.911 24.998,8.800 26.000,10.000 C26.295,9.814 27.402,6.715 29.000,4.000 C29.767,2.696 30.540,1.766 31.310,0.367 C31.582,-0.128 32.309,-0.098 32.722,0.284 C33.135,0.665 33.143,1.302 32.802,1.752 ZM26.000,4.000 L22.000,4.000 C20.896,4.000 20.000,4.895 20.000,6.000 L20.000,12.000 C20.000,13.104 20.896,14.000 22.000,14.000 L28.000,14.000 C29.105,14.000 30.000,13.104 30.000,12.000 L30.000,10.000 C30.000,10.000 30.489,8.682 31.000,8.000 C31.488,7.349 32.000,8.000 32.000,8.000 L32.000,13.000 C32.000,14.657 30.657,16.000 29.000,16.000 L21.000,16.000 C19.343,16.000 18.000,14.657 18.000,13.000 L18.000,5.000 C18.000,3.343 19.343,2.000 21.000,2.000 L28.000,2.000 C28.000,2.000 28.495,2.505 28.000,3.000 C27.495,3.505 26.000,4.000 26.000,4.000 ZM21.000,20.000 L29.000,20.000 C30.657,20.000 32.000,21.343 32.000,23.000 L32.000,31.000 C32.000,32.657 30.657,34.000 29.000,34.000 L21.000,34.000 C19.343,34.000 18.000,32.657 18.000,31.000 L18.000,23.000 C18.000,21.343 19.343,20.000 21.000,20.000 ZM20.000,30.000 C20.000,31.104 20.895,32.000 22.000,32.000 L28.000,32.000 C29.105,32.000 30.000,31.104 30.000,30.000 L30.000,24.000 C30.000,22.895 29.105,22.000 28.000,22.000 L22.000,22.000 C20.895,22.000 20.000,22.895 20.000,24.000 L20.000,30.000 ZM11.000,34.000 L3.000,34.000 C1.343,34.000 0.000,32.657 0.000,31.000 L0.000,23.000 C0.000,21.343 1.343,20.000 3.000,20.000 L11.000,20.000 C12.657,20.000 14.000,21.343 14.000,23.000 L14.000,31.000 C14.000,32.657 12.657,34.000 11.000,34.000 ZM12.000,24.000 C12.000,22.895 11.105,22.000 10.000,22.000 L4.000,22.000 C2.895,22.000 2.000,22.895 2.000,24.000 L2.000,30.000 C2.000,31.104 2.895,32.000 4.000,32.000 L10.000,32.000 C11.105,32.000 12.000,31.104 12.000,30.000 L12.000,24.000 ZM11.000,16.000 L3.000,16.000 C1.343,16.000 0.000,14.657 0.000,13.000 L0.000,5.000 C0.000,3.343 1.343,2.000 3.000,2.000 L11.000,2.000 C12.657,2.000 14.000,3.343 14.000,5.000 L14.000,13.000 C14.000,14.657 12.657,16.000 11.000,16.000 ZM12.000,6.000 C12.000,4.895 11.105,4.000 10.000,4.000 L4.000,4.000 C2.895,4.000 2.000,4.895 2.000,6.000 L2.000,12.000 C2.000,13.105 2.895,14.000 4.000,14.000 L10.000,14.000 C11.105,14.000 12.000,13.105 12.000,12.000 L12.000,6.000 Z" class="cls-1"/>
</svg>
