<?xml version="1.0" encoding="utf-8"?>
<!-- Generator: Adobe Illustrator 19.1.0, SVG Export Plug-In . SVG Version: 6.00 Build 0)  -->
<svg version="1.1" id="Layer_1" xmlns="http://www.w3.org/2000/svg" xmlns:xlink="http://www.w3.org/1999/xlink" x="0px" y="0px"
	 viewBox="-462 265 34 32" style="enable-background:new -462 265 34 32;" xml:space="preserve">
<style type="text/css">
	.st0{fill:#FFFFFF;}
</style>
<g>
	<g>
		<path class="st0" d="M-429,277.9c-0.6,0-1-0.4-1-1v-1.4c0-1.9-1.6-3.5-3.5-3.5h-23c-1.9,0-3.5,1.6-3.5,3.5v1.4c0,0.6-0.4,1-1,1
			s-1-0.4-1-1v-1.4c0-3,2.5-5.5,5.5-5.5h23c3,0,5.5,2.5,5.5,5.5v1.4C-428,277.4-428.4,277.9-429,277.9z"/>
	</g>
</g>
<g>
	<path class="st0" d="M-433.3,275.6c0.1,0,0.1,0,0.1,0c0,0,0,0,0,0.1c0,0,0,0,0,0.1c0,2.5,1.2,5.9,2.2,8.6c0.4,1.1,1,2.7,1,3.1v3.2
		c0,2.4-2,4.4-4.4,4.4h-21.2c-2.4,0-4.4-2-4.4-4.4l0-3.2c0-0.4,0.6-2,1-3.1c1-2.7,2.2-6,2.2-8.6c0,0,0-0.1,0-0.1c0,0,0,0,0,0
		c0,0,0.1,0,0.1,0h9.6h1.1H-433.3 M-433.3,273.6h-12.8h-1.1h-9.6c-2.2,0-2.1,2.1-2.1,2.1c0,3.7-3.2,10-3.2,11.7v3.2
		c0,3.5,2.9,6.4,6.4,6.4h21.2c3.5,0,6.4-2.9,6.4-6.4v-3.2c0-1.6-3.2-8-3.2-11.7C-431.2,275.8-431.1,273.7-433.3,273.6L-433.3,273.6z
		"/>
</g>
<g>
	<path class="st0" d="M-445,267c0.8,0,1.5,0.7,1.5,1.5s-0.7,1.5-1.5,1.5s-1.5-0.7-1.5-1.5S-445.8,267-445,267 M-445,265
		c-1.9,0-3.5,1.6-3.5,3.5s1.6,3.5,3.5,3.5s3.5-1.6,3.5-3.5S-443.1,265-445,265L-445,265z"/>
</g>
</svg>
